<?xml version="1.0" standalone="no"?>
<!DOCTYPE svg PUBLIC "-//W3C//DTD SVG 20010904//EN"
 "http://www.w3.org/TR/2001/REC-SVG-20010904/DTD/svg10.dtd">
<svg version="1.0" xmlns="http://www.w3.org/2000/svg"
 width="225.000000pt" height="225.000000pt" viewBox="0 0 225.000000 225.000000"
 preserveAspectRatio="xMidYMid meet">

<g transform="translate(0.000000,225.000000) scale(0.100000,-0.100000)"
fill="#000000" stroke="none">
<path d="M1060 1960 c-117 -19 -200 -61 -277 -142 -111 -118 -150 -266 -118
-449 14 -81 25 -108 45 -109 3 0 3 41 1 91 -4 127 13 241 50 317 30 62 31 63
52 47 159 -117 462 -124 624 -14 l43 28 16 -24 c45 -68 57 -126 62 -288 3
-111 8 -157 16 -154 34 11 58 224 37 328 -28 135 -114 252 -228 312 -105 55
-213 74 -323 57z"/>
<path d="M770 699 c-36 -23 -68 -46 -71 -51 -4 -5 -85 -45 -180 -87 -170 -76
-175 -79 -196 -122 -12 -24 -22 -51 -22 -60 -1 -22 109 -124 197 -183 109 -72
287 -149 400 -171 40 -8 39 -16 7 174 -34 202 -55 382 -55 468 0 40 -3 73 -7
73 -5 0 -37 -19 -73 -41z"/>
<path d="M1430 727 c0 -61 -36 -365 -60 -508 -17 -98 -30 -182 -30 -187 0 -6
14 -7 39 -1 181 41 414 172 545 307 l49 51 -24 47 c-24 48 -25 48 -189 122
-91 40 -174 81 -185 91 -21 18 -85 60 -122 80 -19 9 -23 9 -23 -2z"/>
<path d="M1082 432 l-54 -47 34 -32 34 -33 -18 -152 c-13 -118 -14 -154 -5
-161 12 -8 124 -3 133 6 3 3 -2 74 -11 158 l-17 154 35 29 36 29 -51 46 c-28
25 -54 47 -57 48 -3 2 -30 -19 -59 -45z"/>
</g>
</svg>
